<?xml version="1.0" encoding="UTF-8"?>
<!DOCTYPE svg PUBLIC "-//W3C//DTD SVG 1.1//EN" "http://www.w3.org/Graphics/SVG/1.1/DTD/svg11.dtd">
<svg xmlns="http://www.w3.org/2000/svg" version="1.1" width="128px" height="128px" style="shape-rendering:geometricPrecision; text-rendering:geometricPrecision; image-rendering:optimizeQuality; fill-rule:evenodd; clip-rule:evenodd" xmlns:xlink="http://www.w3.org/1999/xlink">
<g><path style="opacity:0.971" fill="#e46247" d="M 93.5,21.5 C 92.1811,23.6055 92.5144,25.6055 94.5,27.5C 97.3664,28.208 100.2,28.8747 103,29.5C 105.675,33.973 104.508,36.973 99.5,38.5C 97.1771,44.0116 98.6771,48.0116 104,50.5C 104.483,51.448 104.649,52.448 104.5,53.5C 103.751,54.531 103.085,55.6976 102.5,57C 99.7737,57.1816 97.1071,57.6816 94.5,58.5C 93.0499,59.8498 92.3832,61.5165 92.5,63.5C 83.2487,67.6948 73.9154,71.6948 64.5,75.5C 54.1851,72.0668 44.1851,68.0668 34.5,63.5C 34.6168,61.5165 33.9501,59.8498 32.5,58.5C 29.8929,57.6816 27.2263,57.1816 24.5,57C 23.9011,55.3775 23.2344,53.8775 22.5,52.5C 23.4394,49.759 25.2728,47.759 28,46.5C 28.8184,43.7728 28.6517,41.1062 27.5,38.5C 22.4915,36.973 21.3249,33.973 24,29.5C 26.8003,28.8747 29.6336,28.208 32.5,27.5C 34.4856,25.6055 34.8189,23.6055 33.5,21.5C 30.4053,17.366 31.072,13.866 35.5,11C 38.6708,12.2384 42.0042,12.9051 45.5,13C 47.9466,10.4296 49.1133,7.26298 49,3.5C 53.8712,-0.0413027 57.3712,0.958697 59.5,6.5C 62.1667,7.83333 64.8333,7.83333 67.5,6.5C 69.3454,1.27307 72.6787,0.106406 77.5,3C 77.6591,13.0134 81.9925,15.5134 90.5,10.5C 95.7391,13.1277 96.7391,16.7943 93.5,21.5 Z M 57.5,29.5 C 55.5293,27.1918 53.5293,24.8585 51.5,22.5C 57.5887,18.8704 63.922,18.2037 70.5,20.5C 69.2939,23.0794 67.9606,25.5794 66.5,28C 63.456,28.3629 60.456,28.8629 57.5,29.5 Z"/></g>
<g><path style="opacity:0.993" fill="#c4563d" d="M 55.5,15.5 C 72.9702,13.1629 84.8036,20.1629 91,36.5C 92.8725,52.5563 86.3725,63.7229 71.5,70C 55.2715,73.3029 43.7715,67.4696 37,52.5C 33.0815,35.0035 39.2481,22.6702 55.5,15.5 Z M 57.5,29.5 C 55.5293,27.1918 53.5293,24.8585 51.5,22.5C 57.5887,18.8704 63.922,18.2037 70.5,20.5C 69.2939,23.0794 67.9606,25.5794 66.5,28C 63.456,28.3629 60.456,28.8629 57.5,29.5 Z"/></g>
<g><path style="opacity:0.987" fill="#fed359" d="M 33.5,21.5 C 34.8189,23.6055 34.4856,25.6055 32.5,27.5C 29.6336,28.208 26.8003,28.8747 24,29.5C 21.3249,33.973 22.4915,36.973 27.5,38.5C 28.6517,41.1062 28.8184,43.7728 28,46.5C 25.2728,47.759 23.4394,49.759 22.5,52.5C 21.0929,54.6139 19.0929,56.1139 16.5,57C 22.4237,59.4657 28.4237,61.6324 34.5,63.5C 44.1851,68.0668 54.1851,72.0668 64.5,75.5C 64.5,75.8333 64.5,76.1667 64.5,76.5C 63.8333,76.5 63.5,76.8333 63.5,77.5C 63.1667,77.5 62.8333,77.5 62.5,77.5C 57.2812,83.4373 51.9478,89.2707 46.5,95C 44.5,95.6667 42.5,95.6667 40.5,95C 32.182,91.7283 23.8486,88.5617 15.5,85.5C 10.3223,84.3912 5.82235,82.0579 2,78.5C 1.33333,76.5 1.33333,74.5 2,72.5C 6.28662,67.4248 10.4533,62.2582 14.5,57C 10.4533,51.7418 6.28662,46.5752 2,41.5C 0.70925,37.328 1.87592,34.1613 5.5,32C 14.7448,28.2087 24.0781,24.7087 33.5,21.5 Z"/></g>
<g><path style="opacity:1" fill="#fcce58" d="M 76.5,23.5 C 80.0198,24.1828 82.5198,26.1828 84,29.5C 87.2813,33.7621 88.1146,38.4288 86.5,43.5C 83.5,42.8333 80.5,42.1667 77.5,41.5C 76.6193,37.9638 75.286,34.6305 73.5,31.5C 74.5103,28.8172 75.5103,26.1505 76.5,23.5 Z"/></g>
<g><path style="opacity:0.605" fill="#fdd058" d="M 51.5,22.5 C 53.5293,24.8585 55.5293,27.1918 57.5,29.5C 57.1034,30.525 56.4368,30.6917 55.5,30C 53.6667,28.1667 51.8333,26.3333 50,24.5C 49.4719,23.184 49.9719,22.5173 51.5,22.5 Z"/></g>
<g><path style="opacity:0.999" fill="#facd58" d="M 43.5,28.5 C 46.7441,30.0713 49.4108,32.4046 51.5,35.5C 50.0968,39.0318 49.0968,42.6984 48.5,46.5C 45.8333,47.8333 43.1667,49.1667 40.5,50.5C 38.5052,42.6759 39.5052,35.3425 43.5,28.5 Z"/></g>
<g><path style="opacity:0.998" fill="#deb54e" d="M 59.5,36.5 C 70.2622,35.7387 72.9289,39.9053 67.5,49C 61.0195,51.2699 57.3528,49.1032 56.5,42.5C 56.6284,40.0452 57.6284,38.0452 59.5,36.5 Z"/></g>
<g><path style="opacity:1" fill="#d8b14c" d="M 75.5,48.5 C 79.1981,48.5524 82.8648,48.8857 86.5,49.5C 84.3261,57.8428 79.1595,63.5094 71,66.5C 70.2287,63.1409 69.3953,59.8075 68.5,56.5C 71.9396,54.7317 74.2729,52.0651 75.5,48.5 Z"/></g>
<g><path style="opacity:1" fill="#e3ba50" d="M 50.5,52.5 C 54.3181,54.303 58.3181,55.6364 62.5,56.5C 62.9422,60.1545 63.2756,63.8212 63.5,67.5C 54.9096,67.2252 48.2429,63.5585 43.5,56.5C 46.0499,55.3964 48.3832,54.063 50.5,52.5 Z"/></g>
<g><path style="opacity:0.997" fill="#e5bd51" d="M 22.5,52.5 C 23.2344,53.8775 23.9011,55.3775 24.5,57C 27.2263,57.1816 29.8929,57.6816 32.5,58.5C 33.9501,59.8498 34.6168,61.5165 34.5,63.5C 28.4237,61.6324 22.4237,59.4657 16.5,57C 19.0929,56.1139 21.0929,54.6139 22.5,52.5 Z"/></g>
<g><path style="opacity:0.998" fill="#dab34d" d="M 104.5,53.5 C 106.382,54.7512 108.382,55.9179 110.5,57C 104.655,59.6698 98.6554,61.8365 92.5,63.5C 92.3832,61.5165 93.0499,59.8498 94.5,58.5C 97.1071,57.6816 99.7737,57.1816 102.5,57C 103.085,55.6976 103.751,54.531 104.5,53.5 Z"/></g>
<g><path style="opacity:0.992" fill="#fed359" d="M 93.5,21.5 C 102.922,24.7087 112.255,28.2087 121.5,32C 125.124,34.1613 126.291,37.328 125,41.5C 120.713,46.5752 116.547,51.7418 112.5,57C 116.547,62.2582 120.713,67.4248 125,72.5C 126.293,76.5821 125.126,79.7487 121.5,82C 118.252,83.4595 114.919,84.6262 111.5,85.5C 103.151,88.5617 94.818,91.7283 86.5,95C 84.5,95.6667 82.5,95.6667 80.5,95C 74.8244,89.1628 69.4911,82.9962 64.5,76.5C 64.5,76.1667 64.5,75.8333 64.5,75.5C 73.9154,71.6948 83.2487,67.6948 92.5,63.5C 98.6554,61.8365 104.655,59.6698 110.5,57C 108.382,55.9179 106.382,54.7512 104.5,53.5C 104.649,52.448 104.483,51.448 104,50.5C 98.6771,48.0116 97.1771,44.0116 99.5,38.5C 104.508,36.973 105.675,33.973 103,29.5C 100.2,28.8747 97.3664,28.208 94.5,27.5C 92.5144,25.6055 92.1811,23.6055 93.5,21.5 Z"/></g>
<g><path style="opacity:0.988" fill="#e3bc50" d="M 64.5,76.5 C 69.4911,82.9962 74.8244,89.1628 80.5,95C 82.5,95.6667 84.5,95.6667 86.5,95C 94.818,91.7283 103.151,88.5617 111.5,85.5C 111.666,92.8409 111.5,100.174 111,107.5C 110.5,108 110,108.5 109.5,109C 96.993,114.334 84.3263,119.168 71.5,123.5C 67.8184,124.275 65.3184,122.941 64,119.5C 63.5001,105.504 63.3334,91.504 63.5,77.5C 63.5,76.8333 63.8333,76.5 64.5,76.5 Z"/></g>
<g><path style="opacity:0.987" fill="#fed359" d="M 62.5,77.5 C 62.8333,77.5 63.1667,77.5 63.5,77.5C 63.3334,91.504 63.5001,105.504 64,119.5C 65.3184,122.941 67.8184,124.275 71.5,123.5C 66.0381,125.967 60.3714,126.134 54.5,124C 42.0533,119.277 29.72,114.277 17.5,109C 17,108.5 16.5,108 16,107.5C 15.5005,101.175 15.3338,94.8421 15.5,88.5C 26.2261,92.2982 36.8928,96.2982 47.5,100.5C 50.6879,100.144 52.8545,98.4772 54,95.5C 56.5881,89.3265 59.4214,83.3265 62.5,77.5 Z"/></g>
<g><path style="opacity:1" fill="#e7bf51" d="M 62.5,77.5 C 59.4214,83.3265 56.5881,89.3265 54,95.5C 52.8545,98.4772 50.6879,100.144 47.5,100.5C 36.8928,96.2982 26.2261,92.2982 15.5,88.5C 15.5,87.5 15.5,86.5 15.5,85.5C 23.8486,88.5617 32.182,91.7283 40.5,95C 42.5,95.6667 44.5,95.6667 46.5,95C 51.9478,89.2707 57.2812,83.4373 62.5,77.5 Z"/></g>
</svg>
